<?xml version="1.0" encoding="utf-8"?>
<!-- Generator: Adobe Illustrator 27.5.0, SVG Export Plug-In . SVG Version: 6.00 Build 0)  -->
<svg version="1.1" id="레이어_1" xmlns="http://www.w3.org/2000/svg" xmlns:xlink="http://www.w3.org/1999/xlink" x="0px"
	 y="0px" viewBox="0 0 30 30" style="enable-background:new 0 0 30 30;" xml:space="preserve">
<style type="text/css">
	.st0{fill:#1D1D1B;}
</style>
<path class="st0" d="M16.79,2.7c0,0-0.47,0.07,0.09-0.32c0.57-0.39,0.07-0.69-0.7-1c-0.77-0.3-3.09-0.87-2.88-0.43
	c0,0,0.18,0.21,0.53,0.35c0.35,0.14,0.97,0.37,0.75,0.63c0,0-2.92,3.09-4.94,4.24s-0.3,1.64,0.34,1.85
	c0.64,0.22,3.87,1.34,4.42,2.03c0,0-0.4,1.33-0.81,1.46c-0.4,0.13,1.12-0.08,1.87-0.96c0,0,1.16-0.05,1.36-0.31
	c0.2-0.25-0.33-0.95-0.33-0.95s1.68-3.03,3.37-4.15C21.56,4.02,18.21,2.65,16.79,2.7z M15.39,7.47c-0.1-0.06-0.31-1.05-0.49-0.85
	c-0.08,0.09,0.04,0.2,0.16,0.74c0.11,0.54-0.26,1.39-0.26,1.39c-1.83-0.98-4.05-1.42-4.05-1.42c1.74-1.24,4.56-3.65,4.56-3.65
	C16.39,3.57,16.93,4,16.93,4C16.45,4.42,15.49,7.52,15.39,7.47z"/>
<path class="st0" d="M27.51,14.93c-1.42-0.45-5.15,0.06-7.1,0.49c-1.95,0.44-4.95,1.17-4.95,1.17s3.8-4.32,4.93-4.76
	c1.13-0.44,0.82-1.6,0.35-1.7c-0.47-0.1-2.31-0.35-3.75,0.52c-1.45,0.88-2.21,1.56-2.92,3.81c0,0-2.23-2.2-3.31-2.14
	c-1.09,0.07-1.36,0.27-0.76,0.56c0.6,0.29,0.63,0.6,1.2,1.17c0.57,0.57,1.67,1.46,1.67,1.46s-0.77,1.66-1.93,1.88
	c-1.16,0.22-3.83,0.03-5.31-0.09l-2.59-0.03c0,0-1.62,0.05-0.52,0.83c1.1,0.78,2.17,2.38,2.17,2.38s0.31,0.54,1.29,0.42
	c0,0,0.61-0.05,0.8-0.05c0.18,0,0.54,0.03,1-0.51c0,0,0.24-0.66,3.36-1.3c0,0,7.14-1.85,8.29-2.07c1.15-0.23,4.18-0.58,5.4-0.52
	c0,0-0.7,1.98-3.67,2.83c0,0-2.79,1.18-7.56,1.09c0,0-2.21-0.18-2.45,0.49c0,0-0.15,0.27,0.46,0.38c0,0,1.76,0.47,2.18,0.71
	c0,0-0.56,1.41-2.75,2.34c-2.19,0.92-1.54,1.8-0.39,2.42s3.3,0.79,5.22,2.12c0,0,0.42,0.31,0.8,0.09c0.38-0.22,0.98-0.11,0.98-0.11
	s0.38,0.11,0.73-0.47c0.35-0.59,2.8-4.51,3.09-4.78c0.3-0.27,0.77-1.8-1.2-2.36s-2.88-0.1-3.42,0.37c0,0-0.62-0.3-0.76-0.48
	c0,0,5.04-0.71,7.6-1.82c2.56-1.1,4.21-2.86,4.21-2.86S28.93,15.38,27.51,14.93z M6.47,19.48c0,0-1.27-1.37-1.35-1.49
	c0,0,1.73-0.22,3.47,0.22C8.59,18.21,7.4,18.6,6.47,19.48z M16.68,22.66c1.32-1.01,2.21-0.08,2.21-0.08s-0.72,0.74-1.12,1.93
	c-0.39,1.19-0.9,1.55-0.9,1.55C15.99,23.86,16.68,22.66,16.68,22.66z M11.82,25.77c0,0,2.49-1.29,4.09-2.38c0,0-0.22,1.89,0.1,3.4
	C16.01,26.79,13.48,25.97,11.82,25.77z"/>
</svg>
